{
  "accessors": [
    {
      "bufferView": 2,
      "componentType": 5126,
      "count": 1368,
      "max": [
        365.85174560546875,
        0.20530223846435547,
        238.4287109375
      ],
      "min": [
        -365.85174560546875,
        -237.794677734375,
        -1.4597984552383423
      ],
      "type": "VEC3"
    },
    {
      "bufferView": 2,
      "byteOffset": 16416,
      "componentType": 5126,
      "count": 1368,
      "max": [
        1,
        0.99999988079071045,
        1
      ],
      "min": [
        -1,
        -1,
        -1
      ],
      "type": "VEC3"
    },
    {
      "bufferView": 3,
      "componentType": 5126,
      "count": 1368,
      "max": [
        1,
        1,
        1,
        1
      ],
      "min": [
        -0.99984538555145264,
        -0.97051066160202026,
        -0.99989086389541626,
        -1
      ],
      "type": "VEC4"
    },
    {
      "bufferView": 1,
      "componentType": 5126,
      "count": 1368,
      "max": [
        0.95811235904693604,
        0.98724305629730225
      ],
      "min": [
        0.012752054259181023,
        0.012756858952343464
      ],
      "type": "VEC2"
    },
    {
      "bufferView": 0,
      "componentType": 5125,
      "count": 6624,
      "max": [
        1367
      ],
      "min": [
        0
      ],
      "type": "SCALAR"
    }
  ],
  "asset": {
    "extras": {
      "author": "FrancescoMilanese (https://sketchfab.com/FrancescoMilanese)",
      "license": "SKETCHFAB Standard (https://sketchfab.com/licenses)",
      "source": "https://sketchfab.com/3d-models/soccer-goal-3ab66017b4da475e968d25f0f28de82c",
      "title": "Soccer Goal"
    },
    "generator": "Sketchfab-8.72.4",
    "version": "2.0"
  },
  "bufferViews": [
    {
      "buffer": 0,
      "byteLength": 26496,
      "byteOffset": 0,
      "name": "floatBufferViews",
      "target": 34963
    },
    {
      "buffer": 0,
      "byteLength": 10944,
      "byteOffset": 26496,
      "byteStride": 8,
      "name": "floatBufferViews",
      "target": 34962
    },
    {
      "buffer": 0,
      "byteLength": 32832,
      "byteOffset": 37440,
      "byteStride": 12,
      "name": "floatBufferViews",
      "target": 34962
    },
    {
      "buffer": 0,
      "byteLength": 21888,
      "byteOffset": 70272,
      "byteStride": 16,
      "name": "floatBufferViews",
      "target": 34962
    }
  ],
  "buffers": [
    {
      "byteLength": 92160,
      "uri": "scene.bin"
    }
  ],
  "images": [
    {
      "uri": "textures/soccer_goal_baseColor.png"
    },
    {
      "uri": "textures/soccer_goal_metallicRoughness.png"
    },
    {
      "uri": "textures/soccer_goal_normal.png"
    }
  ],
  "materials": [
    {
      "alphaMode": "BLEND",
      "doubleSided": true,
      "name": "soccer_goal",
      "normalTexture": {
        "index": 2,
        "scale": 1,
        "texCoord": 0
      },
      "pbrMetallicRoughness": {
        "baseColorFactor": [
          1,
          1,
          1,
          1
        ],
        "baseColorTexture": {
          "index": 0,
          "texCoord": 0
        },
        "metallicFactor": 1,
        "metallicRoughnessTexture": {
          "index": 1,
          "texCoord": 0
        },
        "roughnessFactor": 1
      }
    }
  ],
  "meshes": [
    {
      "name": "soccer_goal_soccer_goal_0",
      "primitives": [
        {
          "attributes": {
            "NORMAL": 1,
            "POSITION": 0,
            "TANGENT": 2,
            "TEXCOORD_0": 3
          },
          "indices": 4,
          "material": 0,
          "mode": 4
        }
      ]
    }
  ],
  "nodes": [
    {
      "children": [
        1
      ],
      "name": "RootNode (gltf orientation matrix)",
      "rotation": [
        -0.70710678118654746,
        -0,
        -0,
        0.70710678118654757
      ]
    },
    {
      "children": [
        2
      ],
      "name": "RootNode (model correction matrix)"
    },
    {
      "children": [
        3
      ],
      "matrix": [
        1,
        0,
        0,
        0,
        0,
        0,
        1,
        0,
        0,
        -1,
        0,
        0,
        0,
        0,
        0,
        1
      ],
      "name": "3af8834ed73844a5aa24ccdd67195075.fbx"
    },
    {
      "children": [
        4
      ],
      "name": "RootNode"
    },
    {
      "children": [
        5
      ],
      "matrix": [
        1,
        0,
        0,
        0,
        0,
        -1.6292067939183141e-07,
        -0.99999999999998679,
        0,
        0,
        0.99999999999998679,
        -1.6292067939183141e-07,
        0,
        0,
        0,
        0,
        1
      ],
      "name": "soccer_goal"
    },
    {
      "mesh": 0,
      "name": "soccer_goal_soccer_goal_0"
    }
  ],
  "samplers": [
    {
      "magFilter": 9729,
      "minFilter": 9987,
      "wrapS": 10497,
      "wrapT": 10497
    }
  ],
  "scene": 0,
  "scenes": [
    {
      "name": "OSG_Scene",
      "nodes": [
        0
      ]
    }
  ],
  "textures": [
    {
      "sampler": 0,
      "source": 0
    },
    {
      "sampler": 0,
      "source": 1
    },
    {
      "sampler": 0,
      "source": 2
    }
  ]
}

